<svg xmlns="http://www.w3.org/2000/svg" width="407.667" height="81.667" viewBox="41.833 26.833 407.667 81.667"><path fill="#FFF" d="M168.715 69.255c3.04-1.22 5.475-3.064 7.3-5.538 1.824-2.472 2.736-5.64 2.736-9.5 0-3.456-.74-6.368-2.23-8.74-1.48-2.37-3.53-4.284-6.13-5.742-2.6-1.456-5.67-2.49-9.22-3.1-3.55-.61-7.35-.914-11.4-.914-1.42 0-2.94.04-4.56.11-1.62.07-3.26.17-4.912.31-1.657.14-3.295.31-4.917.51-1.62.21-3.11.48-4.46.82v68.282c1.35.34 2.84.61 4.46.81 1.623.204 3.26.37 4.918.51 1.657.136 3.31.235 4.97.304 1.655.067 3.193.104 4.613.104 11.22 0 19.414-1.774 24.583-5.332 5.17-3.555 7.756-8.853 7.756-15.9 0-4.81-1.22-8.535-3.65-11.18-2.43-2.64-5.71-4.57-9.834-5.79zM140.633 44.36c1.148-.135 2.433-.237 3.853-.305 1.42-.067 3.378-.102 5.88-.102 2.5 0 4.865.203 7.095.61 2.24.406 4.18 1.033 5.83 1.88 1.66.848 2.96 1.965 3.91 3.353.95 1.39 1.42 3.1 1.42 5.13 0 2.17-.45 3.964-1.37 5.386-.91 1.423-2.16 2.576-3.75 3.456-1.59.88-3.46 1.49-5.62 1.83-2.16.338-4.46.507-6.89.507h-10.34V44.36zm29.653 48.37c-1.184 1.692-2.754 3.014-4.714 3.962-1.96.95-4.242 1.61-6.843 1.98-2.61.373-5.36.56-8.27.56-1.56 0-2.93-.017-4.11-.052-1.19-.033-2.22-.084-3.09-.152-1.02-.066-1.9-.135-2.64-.203V74.03h12.67c2.84 0 5.4.204 7.7.61 2.296.406 4.273 1.084 5.93 2.03 1.655.95 2.922 2.222 3.802 3.813.875 1.592 1.316 3.54 1.316 5.843 0 2.574-.59 4.71-1.773 6.403zm23.53 14.122h9.427v-52.84h-9.428v52.84zm4.663-74.788c-1.69 0-3.13.56-4.31 1.676-1.19 1.118-1.78 2.626-1.78 4.522 0 1.897.59 3.404 1.77 4.522 1.18 1.118 2.61 1.677 4.31 1.677 1.68 0 3.12-.55 4.3-1.67 1.18-1.12 1.772-2.62 1.772-4.52 0-1.89-.593-3.4-1.774-4.52-1.18-1.11-2.62-1.67-4.31-1.67zM246.21 97.3c-.678.272-1.876.73-3.6 1.373-1.724.644-4.005.966-6.844.966-1.62 0-3.04-.21-4.257-.62-1.22-.41-2.23-1.1-3.04-2.08s-1.42-2.34-1.83-4.07c-.41-1.73-.61-3.91-.61-6.56V61.93H246v-7.92h-19.97V37.65l-9.43 1.626v47.15c0 3.52.288 6.62.86 9.297.577 2.676 1.574 4.93 2.99 6.758s3.298 3.2 5.63 4.12 5.287 1.37 8.87 1.37c3.04 0 5.744-.35 8.11-1.06 2.365-.71 4.02-1.3 4.968-1.77l-1.823-7.824zm53.608 1.118c-.88.27-2.315.56-4.31.863-1.992.31-4.41.46-7.246.46-3.99 0-7.453-.67-10.394-2.03-2.937-1.35-5.405-3.26-7.4-5.74-1.992-2.47-3.48-5.44-4.46-8.89s-1.47-7.28-1.47-11.48c0-4.33.574-8.24 1.725-11.73 1.148-3.49 2.754-6.45 4.815-8.89 2.063-2.44 4.563-4.3 7.5-5.59s6.203-1.93 9.785-1.93c3.38 0 6.69.43 9.936 1.27 3.24.85 5.85 1.92 7.81 3.2l3.14-8.23c-.41-.27-1.17-.67-2.28-1.22-1.12-.54-2.55-1.08-4.31-1.62s-3.87-1.015-6.34-1.422c-2.47-.406-5.29-.61-8.47-.61-4.666 0-9.04.813-13.13 2.44-4.09 1.625-7.65 3.997-10.696 7.11-3.04 3.12-5.46 6.96-7.25 11.536-1.79 4.57-2.685 9.804-2.685 15.7 0 5.89.793 11.11 2.38 15.645 1.59 4.54 3.837 8.366 6.743 11.48 2.903 3.116 6.386 5.487 10.44 7.11 4.055 1.626 8.55 2.44 13.482 2.44 2.43 0 4.83-.12 7.192-.356 2.363-.24 4.543-.528 6.54-.866 1.99-.34 3.75-.68 5.27-1.02 1.52-.336 2.686-.64 3.496-.913V72.21h-9.83v26.21h.002zm63.007-38.106c-2.197-2.438-4.815-4.318-7.858-5.64-3.04-1.32-6.355-1.98-9.937-1.98-3.583 0-6.894.66-9.935 1.98-3.04 1.322-5.663 3.202-7.858 5.64-2.196 2.44-3.902 5.37-5.12 8.79-1.216 3.422-1.824 7.2-1.824 11.33 0 4.2.61 7.994 1.825 11.38 1.218 3.39 2.924 6.302 5.12 8.74 2.195 2.437 4.816 4.317 7.857 5.64s6.352 1.98 9.935 1.98c3.582 0 6.896-.66 9.935-1.98 3.044-1.32 5.66-3.2 7.858-5.64 2.194-2.44 3.9-5.352 5.12-8.74 1.216-3.386 1.822-7.18 1.822-11.38 0-4.13-.606-7.908-1.824-11.33-1.22-3.42-2.92-6.35-5.12-8.79zm-6.893 34.295c-2.672 3.488-6.304 5.23-10.898 5.23-4.6 0-8.23-1.742-10.897-5.23-2.674-3.487-4.006-8.213-4.006-14.176 0-5.96 1.33-10.68 4.01-14.17 2.67-3.49 6.3-5.23 10.9-5.23s8.23 1.75 10.9 5.24 4.002 8.22 4.002 14.18c0 5.965-1.34 10.69-4.005 14.177zm35.874 3.202c-.607-.61-1.05-1.43-1.316-2.44-.27-1.02-.406-2.3-.406-3.86V28l-9.43 1.625v63.407c0 5.014 1.218 8.706 3.65 11.077 2.434 2.36 6.556 3.62 12.367 3.75l1.32-7.93c-1.48-.2-2.73-.46-3.75-.76-1.01-.31-1.82-.77-2.43-1.37zm47.86-68.19v26.73c-1.147-.75-2.888-1.53-5.22-2.34-2.33-.82-5.02-1.22-8.06-1.22-3.785 0-7.146.68-10.088 2.03-2.938 1.35-5.424 3.25-7.45 5.69-2.027 2.44-3.565 5.35-4.612 8.74-1.05 3.39-1.57 7.11-1.57 11.17 0 4.27.624 8.11 1.876 11.53 1.25 3.422 3.023 6.317 5.32 8.69 2.3 2.37 5.07 4.2 8.313 5.485 3.242 1.282 6.893 1.93 10.95 1.93 4.39 0 8.274-.307 11.654-.915 3.38-.61 6.15-1.22 8.31-1.83V28l-9.43 1.625zm0 68.99c-.945.27-2.28.52-4.003.76-1.725.232-3.87.35-6.44.35-5.07 0-9.124-1.68-12.165-5.03-3.04-3.356-4.562-8.113-4.562-14.28 0-2.706.27-5.247.813-7.62.54-2.37 1.42-4.42 2.63-6.146s2.78-3.083 4.71-4.065c1.924-.98 4.24-1.473 6.94-1.473 2.567 0 4.933.44 7.097 1.32 2.164.88 3.82 1.795 4.97 2.743V98.6zm-331.36-59.18H72.17c-2.435 0-4.408 1.97-4.408 4.4s1.973 4.406 4.407 4.406h29.52c1.21 0 2.2.986 2.2 2.203v44.07c0 1.22-.99 2.204-2.21 2.204H57.62c-1.216 0-2.202-.986-2.202-2.205V63.22c0-2.434-1.974-4.407-4.408-4.407s-4.407 1.97-4.407 4.405v37.9c0 2.436 1.972 4.407 4.406 4.407h57.29c2.43 0 4.41-1.973 4.41-4.405V43.83c0-2.43-1.98-4.404-4.41-4.404z"/><path fill="#FFCC0C" d="M58.066 33.26H46.608c-2.434 0-4.407 1.975-4.407 4.408v11.458c0 2.434 1.98 4.407 4.41 4.407h11.46c2.44 0 4.41-1.973 4.41-4.407V37.668c0-2.433-1.97-4.407-4.4-4.407zm.882 14.545c0 1.217-.986 2.203-2.204 2.203H47.93c-1.217 0-2.204-.986-2.204-2.203V38.99c0-1.216.987-2.203 2.204-2.203h8.814c1.217 0 2.204.986 2.204 2.204v8.82z"/></svg>